:SAMPLES-PER-SECOND 30
:FULLY-SPECIFIED
:DEGREES
471
root  44.4214 34.5849 56.1816 4.3595 35.7878 -5.27625
LeftUpLeg  -8.94018 10.6402 14.2241
LeftLeg  12.2231 20.0659 2.94849
LeftFoot  7.81926 -0.18632 2.72576
LeftToes  -26.8218 1.61378e-006 8.80029e-008
Spine  1.93808 0.761081 0.60182
Spine1  3.63902 1.33645 1.06738
RightShoulder  0.150552 7.71118 11.1694
RightArm  -47.3392 -17.1052 57.5596
RightForeArm  43.4407 6.05494 1.06056
RightHand  0.463457 -8.73686 -5.68699
LeftShoulder1  0.0358281 0.694041 -9.13557
LeftArm  -21.9032 12.9933 -69.6133
LeftForeArm  28.6738 -19.1269 -3.49843
LeftHand  0.0977949 2.35857 4.40264
HEad  3.30837 -24.3837 -8.78254
RightUpLeg  -13.0503 -11.1602 6.06938
RightLeg  13.1191 2.1264 0.354306
RightFoot  -1.53547 0.00312405 -0.109457
RightToes  -24.5043 -0.107965 -0.212014
472
root  44.5142 34.6096 56.1252 4.42857 36.0342 -5.31401
LeftUpLeg  -8.72114 10.6143 14.0627
LeftLeg  11.3542 19.925 2.62733
LeftFoot  8.19424 -0.202605 2.8279
LeftToes  -27.4037 1.61378e-006 8.80029e-008
Spine  1.83005 0.3739 0.531116
Spine1  3.55192 0.323515 1.26976
RightShoulder  0.136551 9.53314 11.6871
RightArm  -47.739 -24.4622 57.8622
RightForeArm  40.5719 -0.130262 -0.0230792
RightHand  1.07656 -14.5032 -8.07197
LeftShoulder1  0.0352927 0.399634 -8.76987
LeftArm  -21.5862 13.4145 -69.6864
LeftForeArm  29.1355 -18.5896 -3.39243
LeftHand  0.0975763 2.3499 4.37197
HEad  4.24826 -22.9721 -9.24363
RightUpLeg  -12.8028 -11.3288 5.92435
RightLeg  12.3964 2.01646 0.310092
RightFoot  -1.0237 0.00285038 -0.0931951
RightToes  -25.3846 -0.113464 -0.217343
473
root  44.6213 34.656 56.0589 4.57405 36.2717 -5.3132
LeftUpLeg  -8.4932 10.636 13.8053
LeftLeg  10.3337 19.7764 2.25853
LeftFoot  8.51424 -0.218166 2.9302
LeftToes  -27.1616 1.61378e-006 8.80029e-008
Spine  1.89256 0.270028 0.426038
Spine1  3.7495 0.00834128 1.29435
RightShoulder  0.0931261 9.4358 11.5723
RightArm  -49.4013 -31.5757 61.0429
RightForeArm  35.8066 -0.11625 -0.015644
RightHand  1.83305 -18.6765 -10.7395
LeftShoulder1  0.0347904 0.304575 -8.73102
LeftArm  -20.9327 13.1118 -69.4652
LeftForeArm  29.6731 -18.0116 -3.2791
LeftHand  0.0951602 2.40543 4.14833
HEad  4.52871 -21.9578 -9.29751
RightUpLeg  -12.4484 -11.1249 5.7045
RightLeg  11.3383 1.55731 0.210536
RightFoot  -0.308078 0.00167789 -0.0570842
RightToes  -26.0114 -0.117442 -0.223311
474
root  44.7265 34.7033 55.9764 4.74821 36.493 -5.23503
LeftUpLeg  -8.43197 10.8207 13.4534
LeftLeg  9.65778 19.5017 2.00039
LeftFoot  8.70065 -0.226041 2.97066
LeftToes  -26.9027 1.61378e-006 8.80029e-008
Spine  2.10106 0.160065 0.358147
Spine1  4.18725 -0.2187 1.25702
RightShoulder  0.0547303 8.48018 11.4776
RightArm  -55.0169 -36.8572 64.4482
RightForeArm  37.3021 -0.120713 -0.0178518
RightHand  1.72737 -18.8215 -10.0209
LeftShoulder1  0.0343649 0.650112 -9.24701
LeftArm  -20.7614 12.5904 -68.8771
LeftForeArm  29.9833 -17.7253 -3.22324
LeftHand  0.103752 2.67209 4.0658
HEad  4.15824 -20.7824 -9.10483
RightUpLeg  -12.145 -10.6655 5.39484
RightLeg  10.3831 0.869503 0.10347
RightFoot  0.383775 0.00136649 -0.030416
RightToes  -26.501 -0.120807 -0.226927
475
root  44.8311 34.7472 55.8833 4.88248 36.6726 -5.16037
LeftUpLeg  -8.41106 10.9637 13.1109
LeftLeg  9.18118 19.2434 1.81647
LeftFoot  8.79253 -0.229433 2.98158
LeftToes  -26.607 1.61378e-006 8.80029e-008
Spine  2.33456 -0.112701 0.294044
Spine1  4.65346 -0.705386 1.11379
RightShoulder  0.0304361 7.61938 11.1675
RightArm  -56.9161 -40.5587 67.5187
RightForeArm  38.4291 -0.124038 -0.0195918
RightHand  0.946128 -15.357 -6.63616
LeftShoulder1  0.0340602 0.968528 -9.75312
LeftArm  -21.8521 12.6198 -68.2535
LeftForeArm  29.9805 -17.6553 -3.20965
LeftHand  0.110496 2.6224 4.44292
HEad  3.57116 -19.1739 -8.75953
RightUpLeg  -11.9331 -10.5602 5.09076
RightLeg  9.6734 0.539211 0.0579586
RightFoot  0.975096 0.00334057 -0.0150067
RightToes  -27.0091 -0.123877 -0.23088
476
root  44.9412 34.7802 55.7818 5.11768 36.5013 -4.97545
LeftUpLeg  -8.3447 11.3881 12.6734
LeftLeg  8.77025 19.0414 1.66307
LeftFoot  8.85268 -0.231217 2.9863
LeftToes  -26.4325 1.61378e-006 8.80029e-008
Spine  2.57092 -0.384994 0.208112
Spine1  5.11285 -1.17113 0.880174
RightShoulder  0.0177641 7.06391 10.5035
RightArm  -56.6652 -42.7536 70.4933
RightForeArm  39.1956 -0.0928185 -0.0149586
RightHand  0.366413 -11.6638 -3.21444
LeftShoulder1  0.03392 1.15853 -10.1458
LeftArm  -23.1826 12.9711 -67.7104
LeftForeArm  29.86 -17.553 -3.18988
LeftHand  0.119003 2.53491 4.99113
HEad  3.32262 -17.2761 -8.57679
RightUpLeg  -11.9921 -10.855 4.73454
RightLeg  9.41761 0.989982 0.100798
RightFoot  1.43268 0.00460613 0.0109214
RightToes  -27.5406 -0.126804 -0.234514
477
root  45.044 34.8009 55.6742 5.39003 35.8325 -4.77693
LeftUpLeg  -8.17224 11.9298 12.2387
LeftLeg  8.38575 19.1903 1.54841
LeftFoot  8.84929 -0.234204 3.02603
LeftToes  -26.2713 1.61378e-006 8.80029e-008
Spine  2.73671 -0.479832 0.110774
Spine1  5.42736 -1.2768 0.609238
RightShoulder  0.0109501 6.64726 9.86682
RightArm  -56.7996 -43.7832 73.2464
RightForeArm  41.4829 1.25673 0.218566
RightHand  0.151989 -10.0459 -1.35826
LeftShoulder1  0.0339881 1.29373 -10.3718
LeftArm  -23.8658 13.3301 -67.3107
LeftForeArm  29.8668 -17.1083 -3.1039
LeftHand  0.122431 2.55831 5.09505
HEad  3.36653 -15.344 -8.58273
RightUpLeg  -12.2145 -10.978 4.40576
RightLeg  9.37988 1.72676 0.173631
RightFoot  1.7928 0.00513425 0.0493875
RightToes  -27.8609 -0.129471 -0.236923
478
root  45.157 34.8147 55.5665 5.60655 34.7636 -4.53445
LeftUpLeg  -8.17958 12.7898 11.7807
LeftLeg  8.91984 19.3504 1.73894
LeftFoot  8.33287 -0.210295 2.88621
LeftToes  -25.6953 1.61378e-006 8.80029e-008
Spine  2.8953 -0.411327 -0.0160248
Spine1  5.73603 -1.08142 0.308521
RightShoulder  0.00900084 6.33252 9.30488
RightArm  -57.433 -43.046 75.0733
RightForeArm  44.5346 1.86308 0.320781
RightHand  0.0904062 -9.7648 -0.687871
LeftShoulder1  0.0343082 1.32458 -10.4028
LeftArm  -24.2264 13.4184 -67.1404
LeftForeArm  30.4048 -16.2587 -2.94051
LeftHand  0.127814 2.75574 4.92769
HEad  3.42738 -13.4514 -8.64147
RightUpLeg  -12.4168 -10.9892 4.01738
RightLeg  9.45484 2.7466 0.278967
RightFoot  2.08648 0.00502683 0.101467
RightToes  -28.1906 -0.13174 -0.239196
479
root  45.2586 34.8197 55.4454 5.88596 33.7463 -4.27472
LeftUpLeg  -8.15858 12.8559 11.2817
LeftLeg  9.14983 20.261 1.89765
LeftFoot  8.02483 -0.205391 2.92746
LeftToes  -25.2157 1.61378e-006 8.80029e-008
Spine  2.9343 -0.359281 -0.149549
Spine1  5.81369 -0.952456 0.0298521
RightShoulder  0.00945759 6.17542 8.96617
RightArm  -57.399 -41.1227 75.7648
RightForeArm  46.5387 2.06644 0.353523
RightHand  0.0904246 -9.84783 -0.679129
LeftShoulder1  0.0349243 1.25427 -10.4022
LeftArm  -24.4008 13.6229 -66.9702
LeftForeArm  31.1415 -15.3759 -2.77217
LeftHand  0.125416 2.91441 4.54636
HEad  3.38519 -11.4795 -8.67544
RightUpLeg  -12.762 -10.9887 3.61813
RightLeg  9.62767 3.72689 0.389328
RightFoot  2.36454 0.00423866 0.158488
RightToes  -28.6462 -0.133803 -0.242447
480
root  45.3722 34.8153 55.3204 6.10867 32.9242 -4.04503
LeftUpLeg  -8.30805 12.5919 10.788
LeftLeg  9.73754 21.2778 2.20366
LeftFoot  7.51836 -0.190286 2.89548
LeftToes  -24.6527 1.61378e-006 8.80029e-008
Spine  2.93485 -0.327457 -0.257813
Spine1  5.82229 -0.891376 -0.172583
RightShoulder  0.0117258 6.10771 8.82177
RightArm  -56.8564 -38.4355 75.6503
RightForeArm  46.4588 2.69501 0.463896
RightHand  0.113733 -9.58358 -0.986003
LeftShoulder1  0.0358801 1.01773 -10.4628
LeftArm  -24.5123 13.9387 -66.767
LeftForeArm  31.5647 -14.7804 -2.6595
LeftHand  0.121686 3.06034 4.17349
HEad  3.09726 -9.8698 -8.60453
RightUpLeg  -13.1666 -11.2212 3.23076
RightLeg  10.0164 4.74901 0.528132
RightFoot  2.45788 0.00359068 0.209215
RightToes  -28.8385 -0.136005 -0.244779
481
root  45.4951 34.8069 55.1905 6.32179 32.1504 -3.79501
LeftUpLeg  -8.46855 12.6417 10.2644
LeftLeg  10.3327 21.9087 2.49018
LeftFoot  6.98036 -0.169331 2.77579
LeftToes  -24.2839 1.61378e-006 8.80029e-008
Spine  2.95525 -0.247471 -0.39162
Spine1  5.8695 -0.732349 -0.427784
RightShoulder  0.0172686 6.01057 8.68204
RightArm  -55.4467 -35.3004 75.4652
RightForeArm  43.6333 4.60219 0.803411
RightHand  0.120999 -8.88211 -1.18695
LeftShoulder1  0.0372194 0.837243 -10.4927
LeftArm  -24.6933 14.0647 -66.601
LeftForeArm  31.7174 -14.4549 -2.59823
LeftHand  0.120556 3.1272 4.04047
HEad  2.45297 -8.65949 -8.39975
RightUpLeg  -13.529 -11.0869 2.76431
RightLeg  10.3496 5.38647 0.630364
RightFoot  2.58645 0.00291224 0.248477
RightToes  -29.2227 -0.138605 -0.246759
482
root  45.6337 34.801 55.0592 6.49095 31.5694 -3.54498
LeftUpLeg  -8.638 12.9454 9.71794
LeftLeg  10.8972 22.1077 2.7267
LeftFoot  6.33563 -0.140861 2.54471
LeftToes  -23.4132 1.61378e-006 8.80029e-008
Spine  2.98649 -0.107854 -0.52412
Spine1  5.92376 -0.434229 -0.701598
RightShoulder  0.0223567 5.72512 8.43022
RightArm  -53.0216 -31.8492 75.3549
RightForeArm  39.2527 7.44007 1.31206
RightHand  0.142451 -7.82684 -1.7107
LeftShoulder1  0.038986 0.653072 -10.5459
LeftArm  -24.6415 13.982 -66.4332
LeftForeArm  31.6299 -14.3791 -2.58407
LeftHand  0.122527 3.17634 4.1505
HEad  1.73522 -7.91234 -8.27856
RightUpLeg  -13.7515 -10.9433 2.25443
RightLeg  10.5031 5.81064 0.695528
RightFoot  2.75804 0.00177591 0.286404
RightToes  -29.5785 -0.141271 -0.249026
483
root  45.7841 34.8068 54.9161 6.6488 31.2279 -3.28078
LeftUpLeg  -8.79611 13.3057 9.11508
LeftLeg  11.2242 22.084 2.8486
LeftFoot  5.93777 -0.123616 2.38316
LeftToes  -23.1023 1.61378e-006 8.80029e-008
Spine  3.03593 0.0368796 -0.671512
Spine1  5.99967 -0.110227 -1.01961
RightShoulder  0.0266897 5.45391 8.18702
RightArm  -49.5347 -28.0547 75.0787
RightForeArm  34.3609 10.6863 1.90143
RightHand  0.203752 -7.14419 -2.89038
LeftShoulder1  0.0428756 0.487709 -10.612
LeftArm  -24.5913 13.6809 -66.2345
LeftForeArm  31.504 -14.5862 -2.62302
LeftHand  0.123892 3.17163 4.23263
HEad  0.802218 -7.4843 -7.91843
RightUpLeg  -13.921 -10.9219 1.7019
RightLeg  10.5846 6.11608 0.740715
RightFoot  3.06246 -0.000138243 0.336517
RightToes  -30.1354 -0.144012 -0.251885
484
root  45.9452 34.8222 54.7663 6.85518 31.1568 -2.9803
LeftUpLeg  -8.95676 13.6256 8.44927
LeftLeg  11.3175 21.8357 2.85341
LeftFoot  5.57715 -0.107852 2.21397
LeftToes  -22.6745 1.61378e-006 8.80029e-008
Spine  3.03997 0.165572 -0.821217
Spine1  5.97556 0.19213 -1.34797
RightShoulder  0.0289335 5.29604 7.87348
RightArm  -45.5586 -24.061 74.5893
RightForeArm  30.3239 13.8923 2.49496
RightHand  0.297185 -6.70618 -4.69446
LeftShoulder1  0.0466162 0.342983 -10.6069
LeftArm  -24.4092 13.299 -66.1018
LeftForeArm  31.2425 -14.9378 -2.68935
LeftHand  0.124187 3.0904 4.26468
HEad  0.068182 -7.3486 -7.78906
RightUpLeg  -14.0305 -11.1081 1.10106
RightLeg  10.4956 6.38153 0.762682
RightFoot  3.39135 -0.00245233 0.39272
RightToes  -30.4583 -0.14709 -0.255139
